<svg width="32" height="32" viewBox="0 0 32 32" fill="none" xmlns="http://www.w3.org/2000/svg">
<g id="Pern Logo">
<path id="Vector" d="M21.3661 18.4616C21.4646 17.6493 21.5384 16.837 21.5384 16.0001C21.5384 15.1632 21.4646 14.3508 21.3661 13.5385H25.5261C25.723 14.3262 25.8461 15.1508 25.8461 16.0001C25.8461 16.8493 25.723 17.6739 25.5261 18.4616M19.1876 25.3047C19.9261 23.9385 20.4923 22.4616 20.8861 20.9232H24.5169C23.3245 22.9764 21.4327 24.5318 19.1876 25.3047ZM18.88 18.4616H13.12C12.9969 17.6493 12.923 16.837 12.923 16.0001C12.923 15.1632 12.9969 14.3385 13.12 13.5385H18.88C18.9907 14.3385 19.0769 15.1632 19.0769 16.0001C19.0769 16.837 18.9907 17.6493 18.88 18.4616ZM16 25.797C14.9784 24.3201 14.1538 22.6832 13.6492 20.9232H18.3507C17.8461 22.6832 17.0215 24.3201 16 25.797ZM11.0769 11.077H7.48303C8.66316 9.01819 10.5535 7.46037 12.8 6.69546C12.0615 8.06161 11.5076 9.53854 11.0769 11.077ZM7.48303 20.9232H11.0769C11.5076 22.4616 12.0615 23.9385 12.8 25.3047C10.5583 24.5314 8.67053 22.9757 7.48303 20.9232ZM6.4738 18.4616C6.27688 17.6739 6.1538 16.8493 6.1538 16.0001C6.1538 15.1508 6.27688 14.3262 6.4738 13.5385H10.6338C10.5353 14.3508 10.4615 15.1632 10.4615 16.0001C10.4615 16.837 10.5353 17.6493 10.6338 18.4616M16 6.19084C17.0215 7.66777 17.8461 9.317 18.3507 11.077H13.6492C14.1538 9.317 14.9784 7.66777 16 6.19084ZM24.5169 11.077H20.8861C20.5009 9.55264 19.9305 8.08118 19.1876 6.69546C21.4523 7.47084 23.3353 9.03392 24.5169 11.077ZM16 3.69238C9.1938 3.69238 3.69226 9.23084 3.69226 16.0001C3.69226 19.2643 4.98896 22.3948 7.2971 24.7029C8.43997 25.8458 9.79676 26.7524 11.29 27.3709C12.7832 27.9894 14.3837 28.3078 16 28.3078C19.2642 28.3078 22.3947 27.0111 24.7028 24.7029C27.0109 22.3948 28.3076 19.2643 28.3076 16.0001C28.3076 14.3838 27.9893 12.7834 27.3708 11.2901C26.7523 9.79689 25.8457 8.4401 24.7028 7.29722C23.5599 6.15435 22.2031 5.24777 20.7099 4.62925C19.2167 4.01073 17.6162 3.69238 16 3.69238Z" fill="#6172F3"/>
</g>
</svg>
